{
    "asset" : {
        "generator" : "Khronos glTF Blender I/O v1.7.33",
        "version" : "2.0"
    },
    "scene" : 0,
    "scenes" : [
        {
            "name" : "Scene",
            "nodes" : [
                0,
                2
            ]
        }
    ],
    "nodes" : [
        {
            "mesh" : 0,
            "name" : "Baguette"
        },
        {
            "mesh" : 1,
            "name" : "IMPRESSION"
        },
        {
            "children" : [
                1
            ],
            "name" : "CadrePP",
            "rotation" : [
                0.5,
                0.5,
                0.5,
                0.4999999701976776
            ],
            "scale" : [
                0.02539999969303608,
                0.02539999969303608,
                0.02539999969303608
            ],
            "translation" : [
                0,
                1.3113021850585938e-05,
                -2.2202730178833008e-06
            ]
        }
    ],
    "materials" : [
        {
            "doubleSided" : true,
            "name" : "Material.001",
            "pbrMetallicRoughness" : {
                "baseColorTexture" : {
                    "index" : 0
                },
                "metallicFactor" : 0,
                "metallicRoughnessTexture" : {
                    "index" : 1
                }
            }
        },
        {
            "doubleSided" : true,
            "name" : "Diamond_Box",
            "pbrMetallicRoughness" : {
                "baseColorTexture" : {
                    "index" : 2
                },
                "metallicFactor" : 0,
                "roughnessFactor" : 0.5
            }
        }
    ],
    "meshes" : [
        {
            "name" : "Haut",
            "primitives" : [
                {
                    "attributes" : {
                        "POSITION" : 0,
                        "NORMAL" : 1
                    },
                    "indices" : 2,
                    "material" : 0
                }
            ]
        },
        {
            "name" : "Impression",
            "primitives" : [
                {
                    "attributes" : {
                        "POSITION" : 3,
                        "NORMAL" : 4,
                        "TEXCOORD_0" : 5
                    },
                    "indices" : 6,
                    "material" : 1
                }
            ]
        }
    ],
    "textures" : [
        {
            "sampler" : 0,
            "source" : 0
        },
        {
            "sampler" : 0,
            "source" : 1
        },
        {
            "sampler" : 0,
            "source" : 2
        }
    ],
    "images" : [
        {
            "bufferView" : 3,
            "mimeType" : "image/jpeg",
            "name" : "wood_texture"
        },
        {
            "bufferView" : 4,
            "mimeType" : "image/png",
            "name" : "wood_texture"
        },
        {
            "bufferView" : 9,
            "mimeType" : "image/jpeg",
            "name" : "Diamond_Box"
        }
    ],
    "accessors" : [
        {
            "bufferView" : 0,
            "componentType" : 5126,
            "count" : 50,
            "max" : [
                11,
                1.0000001192092896,
                -0.5099277496337891
            ],
            "min" : [
                -11,
                -1.0000011920928955,
                -2.509927749633789
            ],
            "type" : "VEC3"
        },
        {
            "bufferView" : 1,
            "componentType" : 5126,
            "count" : 50,
            "type" : "VEC3"
        },
        {
            "bufferView" : 2,
            "componentType" : 5123,
            "count" : 66,
            "type" : "SCALAR"
        },
        {
            "bufferView" : 5,
            "componentType" : 5126,
            "count" : 56,
            "max" : [
                214.2329864501953,
                401.52838134765625,
                -5.0821356773376465
            ],
            "min" : [
                -179.46780395507812,
                7.8275651931762695,
                -5.128632068634033
            ],
            "type" : "VEC3"
        },
        {
            "bufferView" : 6,
            "componentType" : 5126,
            "count" : 56,
            "type" : "VEC3"
        },
        {
            "bufferView" : 7,
            "componentType" : 5126,
            "count" : 56,
            "type" : "VEC2"
        },
        {
            "bufferView" : 8,
            "componentType" : 5123,
            "count" : 72,
            "type" : "SCALAR"
        }
    ],
    "bufferViews" : [
        {
            "buffer" : 0,
            "byteLength" : 600,
            "byteOffset" : 0
        },
        {
            "buffer" : 0,
            "byteLength" : 600,
            "byteOffset" : 600
        },
        {
            "buffer" : 0,
            "byteLength" : 132,
            "byteOffset" : 1200
        },
        {
            "buffer" : 0,
            "byteLength" : 69852,
            "byteOffset" : 1332
        },
        {
            "buffer" : 0,
            "byteLength" : 10850,
            "byteOffset" : 71184
        },
        {
            "buffer" : 0,
            "byteLength" : 672,
            "byteOffset" : 82036
        },
        {
            "buffer" : 0,
            "byteLength" : 672,
            "byteOffset" : 82708
        },
        {
            "buffer" : 0,
            "byteLength" : 448,
            "byteOffset" : 83380
        },
        {
            "buffer" : 0,
            "byteLength" : 144,
            "byteOffset" : 83828
        },
        {
            "buffer" : 0,
            "byteLength" : 35096,
            "byteOffset" : 83972
        }
    ],
    "samplers" : [
        {
            "magFilter" : 9729,
            "minFilter" : 9987
        }
    ],
    "buffers" : [
        {
            "byteLength" : 119068,
            "uri" : "data:application/octet-stream;base64,"
        }
    ]
}
